<svg width="132" height="129" viewBox="0 0 132 129" fill="none" xmlns="http://www.w3.org/2000/svg">
<path d="M1.12891 40.3768C1.17928 40.2158 1.2123 40.061 1.25662 39.8784C1.35574 39.4139 1.49471 38.8877 1.76184 38.4116C2.13132 37.7563 2.64262 37.3371 3.30098 37.1047C3.80341 36.9273 4.29015 36.8986 4.69024 36.9004C6.52794 36.8719 8.39428 36.8094 10.2026 36.7435C11.4081 36.6996 12.6543 36.6651 13.9005 36.6307C40.3559 35.9742 66.8285 35.3115 93.2839 34.655L94.9649 34.6102C100.559 34.4722 106.337 34.3166 112.019 34.2193C112.871 34.2048 113.851 34.2403 114.766 34.6569C115.809 35.1236 116.562 36.0508 116.848 37.2145C117.139 38.3999 116.898 39.654 116.214 40.6829C115.769 41.341 115.294 41.8905 114.825 42.4617C114.654 42.6654 114.499 42.8631 114.322 43.0451L108.871 49.6462C99.639 60.8508 90.4014 72.0336 81.1525 83.2443L78.5214 86.4399C69.999 96.7738 61.1905 107.447 52.5016 117.935C51.6321 118.982 50.9717 119.549 50.3133 119.782C49.4471 120.087 48.6203 119.783 47.9551 118.896C47.4958 118.271 47.1146 117.38 46.7278 115.99L46.6614 115.751C45.0674 110.158 43.4191 104.37 41.9162 98.6253C41.419 96.7013 40.6177 95.0516 39.4049 93.428C33.7001 85.7795 27.9234 77.9416 22.3588 70.3868C20.4627 67.8115 18.5493 65.2423 16.6471 62.6453L13.4674 58.3282C10.0462 53.6908 6.50134 48.8823 3.01534 44.1484C2.62088 43.6197 2.26712 43.1004 1.90128 42.5377C1.73608 42.2858 1.54749 42.0184 1.35892 41.751L0.934291 41.1135L1.12891 40.3768ZM49.512 105.821C49.9608 107.571 50.3915 109.256 50.9721 110.864C51.1498 110.682 51.3154 110.457 51.5322 110.142C51.6805 109.922 51.8461 109.697 52.035 109.487C59.6654 100.255 67.4042 90.8664 74.9089 81.7985L79.8164 75.8427C81.2919 74.0333 82.7908 72.2395 84.2836 70.4241C88.6649 65.1074 93.1779 59.6487 97.6563 54.2023C87.1471 62.6609 76.9542 70.8886 68.9849 77.329C63.2965 81.9143 57.5223 86.6014 51.9319 91.1283L47.7262 94.5458C47.416 94.7985 47.1231 95.0451 46.7903 95.3535L46.773 95.3596C47.0961 97.2735 47.6445 99.1079 48.223 101.051C48.47 101.87 48.7231 102.711 48.9527 103.537C49.1296 104.31 49.3299 105.098 49.512 105.821ZM49.0309 85.83C50.0188 85.004 51.0354 84.144 52.0701 83.3492C54.1395 81.7596 56.202 80.077 58.2012 78.4406C59.0514 77.7348 59.9249 77.0446 60.7811 76.3606L62.6599 74.8383C64.9755 72.9709 67.3829 71.0233 69.7271 69.122C71.1578 67.9726 72.6111 66.7675 74.0072 65.6304C75.5238 64.3791 77.1097 63.1034 78.6609 61.8399C80.6775 60.1974 82.7348 58.5643 84.7228 56.9558C85.6882 56.1854 86.6648 55.3873 87.6302 54.617L89.8824 52.7958C92.0429 51.0547 94.2033 49.3137 96.3464 47.5787C98.0242 46.2229 99.7192 44.8609 101.408 43.4771C99.2357 44.1488 97.0866 44.8361 94.966 45.4894C91.6267 46.5492 88.16 47.6301 84.7453 48.6927C81.5038 49.694 78.2278 50.7076 75.0322 51.6689C65.897 54.4651 56.4204 57.334 47.238 60.5762C43.4957 61.8976 39.6894 63.1938 36.0044 64.4473C33.5728 65.282 31.0545 66.1473 28.5709 67.0004L28.519 67.0187C28.1032 67.1655 27.6934 67.3341 27.2723 67.5305C32.1484 74.1832 36.9475 80.6961 42.0234 87.5885L43.737 89.9181C45.6191 88.681 47.3479 87.2354 49.0309 85.83ZM35.1453 58.2133C42.1222 55.7975 49.3182 53.2805 56.4353 50.9584C61.6804 49.2257 67.0606 47.6362 72.2554 46.0644C74.9251 45.2649 77.6814 44.4348 80.3971 43.5952C83.2513 42.7067 86.1056 41.8182 88.7225 40.9657C76.7298 41.2874 64.6322 41.5745 52.8828 41.8819C38.577 42.233 23.7783 42.591 9.2585 42.9938C13.0688 48.2096 17.4795 54.2155 21.9257 60.2804C22.3201 60.8092 22.7259 61.3101 23.1965 61.9074C23.2847 62.0194 23.373 62.1314 23.4846 62.259C23.6752 62.1917 23.8657 62.1244 24.0389 62.0633C24.3855 61.9409 24.7147 61.8247 25.0439 61.7084C25.4423 61.5677 25.8062 61.4393 26.1874 61.3047C29.1794 60.2959 32.2173 59.2471 35.1453 58.2133Z" fill="#3078FF"/>
</svg>
