<svg width="1102" height="72" viewBox="0 0 1102 72" fill="none" xmlns="http://www.w3.org/2000/svg">
<path d="M1099 20.9632C872.333 16.0736 647.615 6.95643 420.533 4.92744C290.003 3.76114 -100.349 0.347058 28.8569 6.93189C241.23 17.7552 460.721 17.4075 674.548 24.6859C757.397 27.506 839.58 31.286 922.009 35.281C953.729 36.8184 978.504 39.4163 927.744 38.4309C701.198 34.0326 475.827 24.2582 249.277 19.5315C225.101 19.0271 153.472 18.7813 176.76 21.1064C262.119 29.6293 353.693 32.987 441.018 37.715C546.173 43.4084 653.03 46.9641 757.308 54.4668C794.766 57.1618 844.935 58.0027 879.809 63.4869C941.523 73.1918 744.669 67.223 677.007 66.78C564.4 66.0427 451.922 63.7711 339.412 62.1983" stroke="#3078FF" stroke-width="5" stroke-linecap="round"/>
</svg>
